<svg width="17" height="16" viewBox="0 0 17 16" fill="none" xmlns="http://www.w3.org/2000/svg">
<path d="M3.78353 1.90139C3.78331 2.34342 3.6075 2.76725 3.29478 3.07966C2.98207 3.39206 2.55806 3.56744 2.11603 3.56722C1.674 3.567 1.25017 3.39119 0.937756 3.07848C0.625356 2.76576 0.449966 2.34175 0.450196 1.89972C0.450416 1.45769 0.626216 1.03386 0.938936 0.721447C1.25166 0.409047 1.67567 0.233667 2.1177 0.233887C2.55972 0.234107 2.98356 0.409917 3.29596 0.722627C3.60837 1.03535 3.78375 1.45936 3.78353 1.90139ZM3.83353 4.80139H0.500195V15.2347H3.83353V4.80139ZM9.10019 4.80139H5.78353V15.2347H9.0669V9.75972C9.0669 6.70972 13.0419 6.42639 13.0419 9.75972V15.2347H16.3335V8.62642C16.3335 3.48472 10.4502 3.67639 9.0669 6.20139L9.10019 4.80139Z" fill="white"/>
</svg>
