<svg width="18" height="18" viewBox="0 0 18 18" fill="none" xmlns="http://www.w3.org/2000/svg">
<path d="M8.99984 0.401367C11.264 0.401367 11.5465 0.409697 12.4348 0.451367C13.3223 0.493027 13.9265 0.632197 14.4582 0.838867C15.0082 1.05053 15.4715 1.3372 15.9348 1.7997C16.3586 2.21628 16.6865 2.72019 16.8957 3.27637C17.1015 3.8072 17.2415 4.4122 17.2832 5.2997C17.3223 6.18803 17.3332 6.47054 17.3332 8.73472C17.3332 10.9988 17.3248 11.2813 17.2832 12.1697C17.2415 13.0572 17.1015 13.6613 16.8957 14.193C16.6871 14.7495 16.3591 15.2535 15.9348 15.6697C15.5181 16.0933 15.0143 16.4211 14.4582 16.6305C13.9273 16.8363 13.3223 16.9763 12.4348 17.018C11.5465 17.0572 11.264 17.068 8.99984 17.068C6.73567 17.068 6.45317 17.0597 5.56484 17.018C4.67734 16.9763 4.07317 16.8363 3.5415 16.6305C2.98511 16.4217 2.48111 16.0938 2.06484 15.6697C1.64101 15.2532 1.31311 14.7492 1.104 14.193C0.897344 13.6622 0.758174 13.0572 0.716504 12.1697C0.677344 11.2813 0.666504 10.9988 0.666504 8.73472C0.666504 6.47054 0.674844 6.18803 0.716504 5.2997C0.758174 4.41137 0.897344 3.80803 1.104 3.27637C1.31253 2.71985 1.64051 2.2158 2.06484 1.7997C2.48123 1.37573 2.98519 1.04781 3.5415 0.838867C4.07317 0.632197 4.6765 0.493027 5.56484 0.451367C6.45317 0.412197 6.73567 0.401367 8.99984 0.401367ZM8.99984 4.56804C7.89477 4.56804 6.83496 5.00702 6.05356 5.78842C5.27216 6.56983 4.83317 7.62963 4.83317 8.73472C4.83317 9.83982 5.27216 10.8996 6.05356 11.681C6.83496 12.4624 7.89477 12.9013 8.99984 12.9013C10.1049 12.9013 11.1647 12.4624 11.9461 11.681C12.7275 10.8996 13.1665 9.83982 13.1665 8.73472C13.1665 7.62963 12.7275 6.56983 11.9461 5.78842C11.1647 5.00702 10.1049 4.56804 8.99984 4.56804ZM14.4165 4.3597C14.4165 4.08343 14.3068 3.81848 14.1114 3.62313C13.9161 3.42778 13.6511 3.31803 13.3748 3.31803C13.0986 3.31803 12.8336 3.42778 12.6383 3.62313C12.4429 3.81848 12.3332 4.08343 12.3332 4.3597C12.3332 4.63597 12.4429 4.90092 12.6383 5.09627C12.8336 5.29162 13.0986 5.40137 13.3748 5.40137C13.6511 5.40137 13.9161 5.29162 14.1114 5.09627C14.3068 4.90092 14.4165 4.63597 14.4165 4.3597ZM8.99984 6.2347C9.6629 6.2347 10.2988 6.49809 10.7676 6.96693C11.2364 7.43578 11.4998 8.07166 11.4998 8.73472C11.4998 9.39772 11.2364 10.0336 10.7676 10.5024C10.2988 10.9713 9.6629 11.2347 8.99984 11.2347C8.3368 11.2347 7.70091 10.9713 7.23207 10.5024C6.76323 10.0336 6.49984 9.39772 6.49984 8.73472C6.49984 8.07166 6.76323 7.43578 7.23207 6.96693C7.70091 6.49809 8.3368 6.2347 8.99984 6.2347Z" fill="white"/>
</svg>
