<svg width="756" height="352" viewBox="0 0 756 352" fill="none" xmlns="http://www.w3.org/2000/svg">
<g clip-path="url(#clip0_0_265)">
<path d="M737.578 0.203125H18.4217C8.24989 0.203125 0.00402832 8.44898 0.00402832 18.6208V332.409C0.00402832 342.581 8.24989 350.827 18.4217 350.827H737.578C747.75 350.827 755.996 342.581 755.996 332.409V18.6208C755.996 8.44898 747.75 0.203125 737.578 0.203125Z" fill="#191919"/>
<path d="M51.6513 49.586H46.3194V46.2708H60.6851V49.586H55.436V66.8525H51.6513V49.586ZM62.674 51.8237H66.293V66.8525H62.674V51.8237ZM62.3977 47.6797C62.3977 47.0167 62.5819 46.501 62.9502 46.1327C63.3186 45.7644 63.825 45.5801 64.4697 45.5801C65.1327 45.5801 65.6484 45.7644 66.0168 46.1327C66.3851 46.501 66.5693 47.0167 66.5693 47.6797C66.5693 48.3244 66.3851 48.8309 66.0168 49.1992C65.6669 49.5676 65.1512 49.7517 64.4697 49.7517C63.825 49.7517 63.3186 49.5676 62.9502 49.1992C62.5819 48.8309 62.3977 48.3244 62.3977 47.6797ZM69.6346 51.8237H73.0325V53.7023C73.4193 52.984 73.9719 52.4408 74.6901 52.0724C75.4269 51.6856 76.2741 51.4922 77.2318 51.4922C78.2264 51.4922 79.138 51.7132 79.9668 52.1552C80.7956 52.5789 81.431 53.1682 81.8731 53.9234C82.3703 53.113 83.0149 52.5052 83.8069 52.1C84.6173 51.6948 85.529 51.4922 86.5419 51.4922C87.5917 51.4922 88.5403 51.7316 89.3874 52.2105C90.2347 52.6893 90.8977 53.3616 91.3766 54.2273C91.8554 55.0928 92.0948 56.0782 92.0948 57.1832V66.8525H88.4758V58.0397C88.4758 57.0451 88.2087 56.2624 87.6746 55.6914C87.1589 55.1021 86.459 54.8074 85.575 54.8074C84.7094 54.8074 84.0095 55.1021 83.4754 55.6914C82.9413 56.2808 82.6742 57.0636 82.6742 58.0397V66.8525H79.0551V58.0397C79.0551 57.0451 78.7881 56.2624 78.254 55.6914C77.7383 55.1021 77.0384 54.8074 76.1544 54.8074C75.2887 54.8074 74.5889 55.1021 74.0548 55.6914C73.5207 56.2808 73.2536 57.0636 73.2536 58.0397V66.8525H69.6346V51.8237ZM102.285 67.184C100.774 67.184 99.4295 66.8341 98.2508 66.1342C97.0905 65.4343 96.1788 64.4859 95.5158 63.2887C94.8711 62.0916 94.5489 60.7655 94.5489 59.3105C94.5489 57.8371 94.8711 56.511 95.5158 55.3323C96.1788 54.1351 97.0721 53.1959 98.1956 52.5144C99.3375 51.833 100.608 51.4922 102.008 51.4922C103.518 51.4922 104.826 51.8237 105.931 52.4868C107.036 53.1313 107.874 54.0155 108.445 55.1389C109.035 56.2624 109.329 57.4963 109.329 58.8408C109.329 59.4671 109.264 59.9735 109.136 60.3603H98.306C98.4166 61.4653 98.8401 62.3494 99.5768 63.0125C100.313 63.6755 101.225 64.007 102.312 64.007C103.123 64.007 103.813 63.8413 104.384 63.5097C104.973 63.1598 105.442 62.6809 105.793 62.0731L108.721 63.5097C108.261 64.6148 107.451 65.508 106.29 66.1895C105.13 66.8525 103.795 67.184 102.285 67.184ZM105.461 57.5977C105.37 56.6768 105.01 55.9309 104.384 55.3599C103.758 54.7706 102.966 54.4758 102.008 54.4758C101.087 54.4758 100.304 54.7522 99.6597 55.3046C99.0151 55.8387 98.5916 56.6031 98.3889 57.5977H105.461ZM124.635 67.184C123.014 67.184 121.606 66.8801 120.408 66.2724C119.23 65.6646 118.308 64.9002 117.646 63.9794C116.983 63.04 116.559 62.0639 116.375 61.051L119.911 60.1116C120.188 61.2351 120.74 62.11 121.569 62.7361C122.398 63.3624 123.438 63.6755 124.691 63.6755C125.648 63.6755 126.421 63.4361 127.011 62.9572C127.619 62.4784 127.922 61.9074 127.922 61.2443C127.922 60.6365 127.702 60.1116 127.259 59.6696C126.836 59.2092 126.256 58.9053 125.52 58.7579L122.425 58.1501C120.786 57.8371 119.497 57.128 118.557 56.023C117.618 54.9179 117.149 53.5735 117.149 51.9895C117.149 50.8844 117.461 49.8715 118.088 48.9506C118.733 48.0113 119.58 47.2745 120.629 46.7405C121.698 46.2064 122.83 45.9393 124.028 45.9393C125.556 45.9393 126.855 46.1972 127.922 46.7128C128.991 47.2285 129.82 47.8823 130.409 48.6743C131.017 49.4479 131.422 50.2675 131.625 51.1331L128.116 52.2381C127.73 51.2436 127.204 50.5345 126.541 50.1109C125.878 49.6689 125.04 49.4478 124.028 49.4478C123.456 49.4478 122.941 49.5676 122.481 49.807C122.038 50.0465 121.689 50.3595 121.43 50.7463C121.191 51.1146 121.072 51.4922 121.072 51.879C121.072 52.4868 121.274 53.0209 121.679 53.4813C122.084 53.9234 122.646 54.2088 123.365 54.3377L126.293 54.9732C128.079 55.3599 129.46 56.0966 130.437 57.1832C131.413 58.2515 131.901 59.5315 131.901 61.0233C131.901 62.0916 131.607 63.0954 131.017 64.0346C130.427 64.9739 129.58 65.7382 128.476 66.3276C127.388 66.8986 126.109 67.184 124.635 67.184ZM141.998 67.184C140.487 67.184 139.142 66.8341 137.964 66.1342C136.804 65.4343 135.892 64.4859 135.229 63.2887C134.585 62.0916 134.262 60.7655 134.262 59.3105C134.262 57.8371 134.585 56.511 135.229 55.3323C135.892 54.1351 136.785 53.1959 137.908 52.5144C139.051 51.833 140.321 51.4922 141.721 51.4922C143.231 51.4922 144.539 51.8237 145.644 52.4868C146.749 53.1313 147.587 54.0155 148.158 55.1389C148.748 56.2624 149.042 57.4963 149.042 58.8408C149.042 59.4671 148.977 59.9735 148.849 60.3603H138.019C138.13 61.4653 138.553 62.3494 139.29 63.0125C140.026 63.6755 140.938 64.007 142.025 64.007C142.836 64.007 143.526 63.8413 144.097 63.5097C144.686 63.1598 145.155 62.6809 145.506 62.0731L148.434 63.5097C147.974 64.6148 147.164 65.508 146.003 66.1895C144.843 66.8525 143.508 67.184 141.998 67.184ZM145.174 57.5977C145.083 56.6768 144.723 55.9309 144.097 55.3599C143.471 54.7706 142.679 54.4758 141.721 54.4758C140.8 54.4758 140.017 54.7522 139.373 55.3046C138.728 55.8387 138.305 56.6031 138.102 57.5977H145.174ZM159.079 72.9303C157.384 72.9303 155.892 72.5252 154.604 71.7148C153.333 70.9228 152.458 69.8638 151.979 68.5377L155.349 67.2669C155.571 67.9852 156.012 68.5562 156.675 68.9798C157.338 69.4033 158.139 69.6152 159.079 69.6152C160.184 69.6152 161.077 69.3021 161.758 68.6759C162.458 68.0496 162.809 67.1933 162.809 66.1066V64.4766C161.74 65.6553 160.294 66.2448 158.471 66.2448C157.09 66.2448 155.837 65.9225 154.714 65.2778C153.609 64.6332 152.743 63.7492 152.117 62.6257C151.491 61.5022 151.177 60.2406 151.177 58.8408C151.177 57.4411 151.482 56.1887 152.089 55.0836C152.715 53.9601 153.581 53.0853 154.687 52.4591C155.791 51.8145 157.026 51.4922 158.388 51.4922C160.322 51.4922 161.86 52.1736 163.002 53.5366V51.8237H166.427V66.1066C166.427 67.4143 166.115 68.5837 165.488 69.6152C164.862 70.665 163.987 71.4754 162.864 72.0463C161.758 72.6356 160.497 72.9303 159.079 72.9303ZM154.934 58.8685C154.934 60.0287 155.303 60.9958 156.04 61.7692C156.795 62.5244 157.753 62.9019 158.913 62.9019C160.055 62.9019 160.985 62.5244 161.703 61.7692C162.44 61.0141 162.809 60.0472 162.809 58.8685C162.809 57.6898 162.44 56.7229 161.703 55.9677C160.966 55.1942 160.037 54.8074 158.913 54.8074C157.772 54.8074 156.823 55.1942 156.068 55.9677C155.313 56.7412 154.934 57.7081 154.934 58.8685ZM169.808 51.8237H173.205V53.7023C173.593 52.984 174.145 52.4408 174.863 52.0724C175.6 51.6856 176.447 51.4922 177.404 51.4922C178.399 51.4922 179.311 51.7132 180.14 52.1552C180.969 52.5789 181.604 53.1682 182.046 53.9234C182.544 53.113 183.188 52.5052 183.98 52.1C184.791 51.6948 185.701 51.4922 186.715 51.4922C187.765 51.4922 188.713 51.7316 189.56 52.2105C190.407 52.6893 191.07 53.3616 191.55 54.2273C192.028 55.0928 192.268 56.0782 192.268 57.1832V66.8525H188.648V58.0397C188.648 57.0451 188.382 56.2624 187.848 55.6914C187.332 55.1021 186.632 54.8074 185.748 54.8074C184.883 54.8074 184.182 55.1021 183.648 55.6914C183.114 56.2808 182.847 57.0636 182.847 58.0397V66.8525H179.228V58.0397C179.228 57.0451 178.961 56.2624 178.427 55.6914C177.911 55.1021 177.212 54.8074 176.327 54.8074C175.462 54.8074 174.762 55.1021 174.228 55.6914C173.693 56.2808 173.427 57.0636 173.427 58.0397V66.8525H169.808V51.8237ZM202.457 67.184C200.947 67.184 199.603 66.8341 198.423 66.1342C197.263 65.4343 196.352 64.4859 195.689 63.2887C195.044 62.0916 194.721 60.7655 194.721 59.3105C194.721 57.8371 195.044 56.511 195.689 55.3323C196.352 54.1351 197.245 53.1959 198.369 52.5144C199.51 51.833 200.781 51.4922 202.18 51.4922C203.691 51.4922 204.999 51.8237 206.104 52.4868C207.209 53.1313 208.047 54.0155 208.618 55.1389C209.207 56.2624 209.502 57.4963 209.502 58.8408C209.502 59.4671 209.438 59.9735 209.309 60.3603H198.479C198.589 61.4653 199.013 62.3494 199.75 63.0125C200.487 63.6755 201.398 64.007 202.485 64.007C203.295 64.007 203.986 63.8413 204.557 63.5097C205.146 63.1598 205.616 62.6809 205.965 62.0731L208.894 63.5097C208.434 64.6148 207.623 65.508 206.463 66.1895C205.302 66.8525 203.967 67.184 202.457 67.184ZM205.634 57.5977C205.542 56.6768 205.183 55.9309 204.557 55.3599C203.93 54.7706 203.138 54.4758 202.18 54.4758C201.26 54.4758 200.478 54.7522 199.833 55.3046C199.188 55.8387 198.764 56.6031 198.562 57.5977H205.634ZM212.245 51.8237H215.643V53.6747C216.03 52.9748 216.592 52.4408 217.328 52.0724C218.084 51.6856 218.94 51.4922 219.898 51.4922C220.984 51.4922 221.961 51.7316 222.826 52.2105C223.692 52.6893 224.364 53.3616 224.843 54.2273C225.322 55.0928 225.561 56.0782 225.561 57.1832V66.8525H221.942V58.0397C221.942 57.0636 221.656 56.2808 221.086 55.6914C220.533 55.1021 219.806 54.8074 218.903 54.8074C218.001 54.8074 217.264 55.1021 216.693 55.6914C216.141 56.2808 215.864 57.0636 215.864 58.0397V66.8525H212.245V51.8237ZM235.473 67.0183C233.778 67.0183 232.462 66.5578 231.522 65.637C230.602 64.6976 230.141 63.3808 230.141 61.6863V55.0561H227.545V51.8237H227.82C228.557 51.8237 229.129 51.6303 229.533 51.2436C229.938 50.8568 230.141 50.295 230.141 49.5584V48.3981H233.76V51.8237H237.214V55.0561H233.76V61.493C233.76 63.0585 234.607 63.8413 236.302 63.8413C236.597 63.8413 236.919 63.8136 237.269 63.7584V66.8801C236.679 66.9723 236.081 67.0183 235.473 67.0183ZM244.511 67.184C242.927 67.184 241.666 66.7973 240.726 66.0237C239.805 65.2502 239.345 64.2004 239.345 62.8743C239.345 61.6035 239.777 60.5536 240.643 59.7248C241.509 58.8962 242.807 58.3436 244.539 58.0674L249.014 57.349V56.8518C249.014 56.1887 248.756 55.6454 248.241 55.2218C247.744 54.7982 247.081 54.5864 246.252 54.5864C245.478 54.5864 244.788 54.7982 244.179 55.2218C243.59 55.627 243.158 56.1703 242.881 56.8518L239.925 55.4152C240.368 54.2365 241.177 53.2879 242.356 52.5697C243.535 51.8513 244.88 51.4922 246.389 51.4922C247.605 51.4922 248.682 51.7224 249.622 52.1829C250.58 52.6249 251.317 53.2603 251.832 54.0891C252.367 54.8995 252.633 55.8204 252.633 56.8518V66.8525H249.208V65.2502C248.029 66.5395 246.463 67.184 244.511 67.184ZM243.102 62.7361C243.102 63.2518 243.296 63.6663 243.682 63.9794C244.07 64.2741 244.566 64.4214 245.174 64.4214C246.298 64.4214 247.218 64.0715 247.936 63.3716C248.655 62.6533 249.014 61.7692 249.014 60.7194V60.1116L245.229 60.7471C244.511 60.8944 243.977 61.1339 243.627 61.4653C243.278 61.7785 243.102 62.202 243.102 62.7361ZM262.56 67.0183C260.865 67.0183 259.549 66.5578 258.609 65.637C257.688 64.6976 257.228 63.3808 257.228 61.6863V55.0561H254.631V51.8237H254.907C255.644 51.8237 256.215 51.6303 256.62 51.2436C257.025 50.8568 257.228 50.295 257.228 49.5584V48.3981H260.847V51.8237H264.301V55.0561H260.847V61.493C260.847 63.0585 261.694 63.8413 263.389 63.8413C263.683 63.8413 264.006 63.8136 264.356 63.7584V66.8801C263.766 66.9723 263.168 67.0183 262.56 67.0183ZM267.121 51.8237H270.74V66.8525H267.121V51.8237ZM266.844 47.6797C266.844 47.0167 267.029 46.501 267.396 46.1327C267.765 45.7644 268.271 45.5801 268.916 45.5801C269.58 45.5801 270.095 45.7644 270.463 46.1327C270.832 46.501 271.016 47.0167 271.016 47.6797C271.016 48.3244 270.832 48.8309 270.463 49.1992C270.114 49.5676 269.598 49.7517 268.916 49.7517C268.271 49.7517 267.765 49.5676 267.396 49.1992C267.029 48.8309 266.844 48.3244 266.844 47.6797ZM281.43 67.184C279.975 67.184 278.639 66.8434 277.424 66.1619C276.209 65.4804 275.241 64.5411 274.523 63.3439C273.823 62.1468 273.473 60.8115 273.473 59.3382C273.473 57.8647 273.823 56.5294 274.523 55.3323C275.223 54.1351 276.181 53.1959 277.396 52.5144C278.612 51.833 279.957 51.4922 281.43 51.4922C282.885 51.4922 284.211 51.833 285.408 52.5144C286.624 53.1959 287.582 54.1351 288.282 55.3323C289 56.5294 289.358 57.8647 289.358 59.3382C289.358 60.83 289 62.1745 288.282 63.3716C287.582 64.5687 286.624 65.508 285.408 66.1895C284.192 66.8525 282.867 67.184 281.43 67.184ZM277.23 59.3382C277.23 60.6458 277.618 61.7324 278.391 62.598C279.183 63.4453 280.195 63.8688 281.43 63.8688C282.222 63.8688 282.931 63.6755 283.557 63.2887C284.183 62.9019 284.671 62.3678 285.021 61.6863C285.389 60.9865 285.574 60.2037 285.574 59.3382C285.574 58.4909 285.389 57.7266 285.021 57.0451C284.671 56.3453 284.183 55.802 283.557 55.4152C282.931 55.0099 282.222 54.8074 281.43 54.8074C280.62 54.8074 279.892 55.0099 279.248 55.4152C278.622 55.802 278.124 56.3361 277.756 57.0175C277.405 57.6989 277.23 58.4725 277.23 59.3382ZM292.104 51.8237H295.501V53.6747C295.887 52.9748 296.45 52.4408 297.187 52.0724C297.942 51.6856 298.798 51.4922 299.755 51.4922C300.842 51.4922 301.819 51.7316 302.684 52.2105C303.549 52.6893 304.222 53.3616 304.701 54.2273C305.18 55.0928 305.419 56.0782 305.419 57.1832V66.8525H301.8V58.0397C301.8 57.0636 301.515 56.2808 300.944 55.6914C300.391 55.1021 299.663 54.8074 298.761 54.8074C297.859 54.8074 297.122 55.1021 296.551 55.6914C295.998 56.2808 295.722 57.0636 295.722 58.0397V66.8525H292.104V51.8237Z" fill="white"/>
<path d="M62.8811 126.8H67.375C68.7501 126.8 69.9534 127.083 70.9848 127.648C72.0285 128.212 72.8327 129.017 73.3976 130.061C73.9623 131.092 74.2447 132.289 74.2447 133.652C74.2447 135.015 73.9623 136.219 73.3976 137.262C72.8327 138.293 72.0285 139.098 70.9848 139.675C69.9534 140.239 68.7501 140.522 67.375 140.522H62.8811V126.8ZM67.3934 138.864C68.4002 138.864 69.2781 138.656 70.0271 138.238C70.776 137.809 71.3532 137.2 71.7583 136.415C72.1635 135.629 72.3661 134.708 72.3661 133.652C72.3661 132.597 72.1635 131.682 71.7583 130.908C71.3532 130.122 70.77 129.521 70.0087 129.103C69.2597 128.673 68.3879 128.458 67.3934 128.458H64.686V138.864H67.3934ZM80.8973 140.743C79.9642 140.743 79.117 140.516 78.3557 140.062C77.5945 139.607 76.9989 138.987 76.5692 138.201C76.1395 137.403 75.9246 136.513 75.9246 135.531C75.9246 134.548 76.1334 133.664 76.5508 132.878C76.9806 132.092 77.5577 131.479 78.282 131.037C79.0188 130.595 79.8415 130.374 80.75 130.374C81.6955 130.374 82.5182 130.595 83.2181 131.037C83.9302 131.479 84.4704 132.068 84.8388 132.805C85.2194 133.529 85.4097 134.309 85.4097 135.144C85.4097 135.427 85.379 135.733 85.3177 136.065H77.7296C77.7541 136.691 77.9137 137.237 78.2084 137.704C78.5031 138.17 78.8837 138.533 79.3503 138.79C79.8292 139.048 80.351 139.178 80.9158 139.178C82.1191 139.178 83.0461 138.631 83.6969 137.538L85.1334 138.275C84.8142 138.987 84.274 139.576 83.5127 140.043C82.7515 140.51 81.8796 140.743 80.8973 140.743ZM83.5495 134.591C83.5249 133.818 83.2425 133.18 82.7023 132.675C82.1743 132.16 81.5236 131.903 80.75 131.903C79.9888 131.903 79.3319 132.148 78.7794 132.64C78.2268 133.118 77.8892 133.769 77.7664 134.591H83.5495ZM91.1976 140.743C90.2399 140.743 89.3926 140.51 88.656 140.043C87.9193 139.564 87.3913 138.919 87.072 138.109L88.4534 137.409C88.7358 137.986 89.1226 138.441 89.6137 138.772C90.1048 139.104 90.639 139.27 91.216 139.27C91.7686 139.27 92.2229 139.141 92.5789 138.883C92.935 138.625 93.1131 138.287 93.1131 137.87C93.1131 137.464 92.9534 137.14 92.6342 136.894C92.3149 136.636 91.9712 136.482 91.6028 136.433L90.111 136.231C89.2269 136.01 88.5638 135.642 88.1218 135.125C87.6798 134.61 87.4588 134.002 87.4588 133.303C87.4588 132.725 87.6062 132.215 87.9008 131.774C88.2078 131.331 88.6252 130.988 89.1532 130.742C89.6935 130.496 90.289 130.374 90.9398 130.374C91.7992 130.374 92.5667 130.588 93.242 131.019C93.9296 131.448 94.4207 132.043 94.7153 132.805L93.3524 133.504C93.1069 133.001 92.7631 132.603 92.3211 132.308C91.8913 132.013 91.4124 131.866 90.8845 131.866C90.3811 131.866 89.9759 131.988 89.669 132.234C89.362 132.48 89.2085 132.798 89.2085 133.192C89.2085 133.597 89.3497 133.922 89.6321 134.168C89.9268 134.401 90.246 134.548 90.5898 134.61L92.2289 134.831C93.0516 135.052 93.6901 135.433 94.1444 135.973C94.611 136.5 94.8442 137.115 94.8442 137.815C94.8442 138.379 94.6909 138.883 94.3839 139.325C94.0769 139.767 93.6471 140.117 93.0946 140.374C92.5421 140.62 91.9098 140.743 91.1976 140.743ZM97.0496 130.595H98.7625V140.522H97.0496V130.595ZM96.8471 127.943C96.8471 127.623 96.9453 127.366 97.1418 127.169C97.3382 126.973 97.5961 126.874 97.9153 126.874C98.2345 126.874 98.4924 126.973 98.6888 127.169C98.8853 127.366 98.9835 127.623 98.9835 127.943C98.9835 128.262 98.8853 128.52 98.6888 128.716C98.4924 128.913 98.2345 129.01 97.9153 129.01C97.5961 129.01 97.3382 128.913 97.1418 128.716C96.9453 128.52 96.8471 128.262 96.8471 127.943ZM106.153 144.574C105.11 144.574 104.189 144.334 103.391 143.856C102.605 143.389 102.047 142.763 101.715 141.977L103.317 141.24C103.501 141.731 103.84 142.13 104.33 142.437C104.821 142.757 105.423 142.916 106.135 142.916C107.007 142.916 107.731 142.664 108.309 142.161C108.886 141.669 109.174 140.982 109.174 140.099V138.717C108.806 139.221 108.333 139.607 107.756 139.877C107.179 140.148 106.553 140.282 105.877 140.282C104.956 140.282 104.127 140.068 103.391 139.638C102.654 139.196 102.071 138.601 101.641 137.852C101.224 137.09 101.015 136.249 101.015 135.328C101.015 134.407 101.224 133.572 101.641 132.823C102.059 132.062 102.636 131.466 103.372 131.037C104.109 130.595 104.938 130.374 105.859 130.374C106.547 130.374 107.179 130.515 107.756 130.797C108.333 131.068 108.824 131.46 109.229 131.976V130.595H110.905V140.099C110.905 140.957 110.702 141.725 110.298 142.401C109.892 143.076 109.327 143.604 108.603 143.984C107.879 144.377 107.062 144.574 106.153 144.574ZM102.82 135.328C102.82 135.93 102.955 136.482 103.225 136.986C103.508 137.489 103.894 137.889 104.386 138.183C104.876 138.478 105.423 138.625 106.025 138.625C106.602 138.625 107.13 138.478 107.609 138.183C108.1 137.889 108.48 137.489 108.75 136.986C109.033 136.482 109.174 135.93 109.174 135.328C109.174 134.727 109.033 134.173 108.75 133.67C108.48 133.167 108.1 132.768 107.609 132.474C107.13 132.179 106.602 132.031 106.025 132.031C105.423 132.031 104.876 132.179 104.386 132.474C103.906 132.768 103.526 133.167 103.243 133.67C102.961 134.173 102.82 134.727 102.82 135.328ZM113.561 130.595H115.236V131.811C115.532 131.343 115.924 130.988 116.416 130.742C116.907 130.496 117.459 130.374 118.074 130.374C118.773 130.374 119.406 130.539 119.97 130.871C120.535 131.19 120.977 131.632 121.296 132.197C121.628 132.762 121.794 133.395 121.794 134.095V140.522H120.062V134.647C120.062 133.836 119.841 133.198 119.399 132.731C118.969 132.265 118.398 132.031 117.686 132.031C116.974 132.031 116.391 132.271 115.936 132.749C115.495 133.216 115.273 133.849 115.273 134.647V140.522H113.561V130.595Z" fill="white"/>
<path d="M49.0829 135.97C50.777 135.97 52.1503 134.595 52.1503 132.9C52.1503 131.205 50.777 129.831 49.0829 129.831C47.3888 129.831 46.0154 131.205 46.0154 132.9C46.0154 134.595 47.3888 135.97 49.0829 135.97Z" fill="#CFB8FF"/>
<path d="M62.8811 177.448H67.375C68.7501 177.448 69.9534 177.73 70.9848 178.296C72.0285 178.86 72.8327 179.664 73.3976 180.708C73.9623 181.739 74.2447 182.936 74.2447 184.3C74.2447 185.662 73.9623 186.865 73.3976 187.909C72.8327 188.94 72.0285 189.745 70.9848 190.322C69.9534 190.887 68.7501 191.169 67.375 191.169H62.8811V177.448ZM67.3934 189.512C68.4002 189.512 69.2781 189.303 70.0271 188.886C70.776 188.456 71.3532 187.848 71.7583 187.062C72.1635 186.276 72.3661 185.355 72.3661 184.3C72.3661 183.243 72.1635 182.328 71.7583 181.555C71.3532 180.769 70.77 180.168 70.0087 179.751C69.2597 179.32 68.3879 179.106 67.3934 179.106H64.686V189.512H67.3934ZM80.8973 191.39C79.9642 191.39 79.117 191.163 78.3557 190.709C77.5945 190.255 76.9989 189.635 76.5692 188.849C76.1395 188.051 75.9246 187.16 75.9246 186.178C75.9246 185.195 76.1334 184.312 76.5508 183.526C76.9806 182.74 77.5577 182.127 78.282 181.684C79.0188 181.242 79.8415 181.021 80.75 181.021C81.6955 181.021 82.5182 181.242 83.2181 181.684C83.9302 182.127 84.4704 182.716 84.8388 183.452C85.2194 184.177 85.4097 184.957 85.4097 185.792C85.4097 186.073 85.379 186.381 85.3177 186.712H77.7296C77.7541 187.339 77.9137 187.885 78.2084 188.351C78.5031 188.818 78.8837 189.18 79.3503 189.438C79.8292 189.695 80.351 189.824 80.9158 189.824C82.1191 189.824 83.0461 189.278 83.6969 188.185L85.1334 188.922C84.8142 189.635 84.274 190.224 83.5127 190.69C82.7515 191.156 81.8796 191.39 80.8973 191.39ZM83.5495 185.238C83.5249 184.465 83.2425 183.826 82.7023 183.323C82.1743 182.808 81.5236 182.55 80.75 182.55C79.9888 182.55 79.3319 182.796 78.7794 183.286C78.2268 183.765 77.8892 184.416 77.7664 185.238H83.5495ZM86.3397 181.242H88.2551L91.0361 188.757L93.8356 181.242H95.751L91.8465 191.169H90.2258L86.3397 181.242ZM101.671 191.39C100.738 191.39 99.8908 191.163 99.1295 190.709C98.3683 190.255 97.7728 189.635 97.343 188.849C96.9133 188.051 96.6985 187.16 96.6985 186.178C96.6985 185.195 96.9072 184.312 97.3246 183.526C97.7544 182.74 98.3315 182.127 99.0559 181.684C99.7926 181.242 100.615 181.021 101.524 181.021C102.469 181.021 103.292 181.242 103.991 181.684C104.704 182.127 105.245 182.716 105.612 183.452C105.994 184.177 106.183 184.957 106.183 185.792C106.183 186.073 106.152 186.381 106.092 186.712H98.5034C98.5279 187.339 98.6875 187.885 98.9822 188.351C99.2769 188.818 99.6575 189.18 100.125 189.438C100.603 189.695 101.125 189.824 101.689 189.824C102.893 189.824 103.82 189.278 104.471 188.185L105.907 188.922C105.588 189.635 105.048 190.224 104.287 190.69C103.525 191.156 102.653 191.39 101.671 191.39ZM104.323 185.238C104.299 184.465 104.016 183.826 103.476 183.323C102.948 182.808 102.298 182.55 101.524 182.55C100.763 182.55 100.106 182.796 99.5532 183.286C99.0006 183.765 98.663 184.416 98.5402 185.238H104.323ZM108.416 177.227H110.129V191.169H108.416V177.227ZM117.502 191.39C116.557 191.39 115.691 191.169 114.906 190.727C114.132 190.273 113.518 189.652 113.063 188.867C112.609 188.069 112.382 187.179 112.382 186.196C112.382 185.226 112.603 184.349 113.045 183.563C113.5 182.765 114.114 182.144 114.887 181.702C115.673 181.249 116.545 181.021 117.502 181.021C118.448 181.021 119.307 181.249 120.081 181.702C120.867 182.144 121.48 182.759 121.922 183.545C122.377 184.33 122.604 185.214 122.604 186.196C122.604 187.191 122.377 188.082 121.922 188.867C121.468 189.652 120.848 190.273 120.062 190.727C119.289 191.169 118.435 191.39 117.502 191.39ZM114.187 186.196C114.187 186.859 114.329 187.461 114.611 188.002C114.906 188.542 115.304 188.965 115.808 189.272C116.324 189.58 116.888 189.732 117.502 189.732C118.104 189.732 118.657 189.58 119.16 189.272C119.663 188.965 120.056 188.542 120.339 188.002C120.633 187.461 120.781 186.859 120.781 186.196C120.781 185.533 120.633 184.938 120.339 184.409C120.056 183.869 119.663 183.446 119.16 183.139C118.657 182.833 118.104 182.679 117.502 182.679C116.888 182.679 116.324 182.833 115.808 183.139C115.304 183.446 114.906 183.869 114.611 184.409C114.329 184.938 114.187 185.533 114.187 186.196ZM124.838 181.242H126.514V182.624C126.907 182.12 127.398 181.727 127.987 181.444C128.589 181.162 129.259 181.021 129.995 181.021C130.915 181.021 131.75 181.249 132.499 181.702C133.248 182.156 133.839 182.783 134.268 183.582C134.697 184.367 134.912 185.244 134.912 186.215C134.912 187.185 134.697 188.063 134.268 188.849C133.839 189.635 133.248 190.255 132.499 190.709C131.75 191.163 130.909 191.39 129.977 191.39C129.265 191.39 128.608 191.255 128.005 190.985C127.416 190.703 126.932 190.304 126.551 189.788V194.853H124.838V181.242ZM126.551 186.215C126.551 186.878 126.692 187.479 126.975 188.02C127.269 188.548 127.668 188.965 128.171 189.272C128.675 189.58 129.234 189.732 129.848 189.732C130.461 189.732 131.014 189.58 131.506 189.272C132.009 188.965 132.395 188.548 132.665 188.02C132.948 187.479 133.09 186.878 133.09 186.215C133.09 185.552 132.948 184.95 132.665 184.409C132.383 183.869 131.996 183.446 131.506 183.139C131.014 182.833 130.461 182.679 129.848 182.679C129.234 182.679 128.675 182.833 128.171 183.139C127.668 183.446 127.269 183.869 126.975 184.409C126.692 184.95 126.551 185.552 126.551 186.215ZM137.158 181.242H138.835V182.476C139.117 182.01 139.497 181.653 139.976 181.407C140.468 181.15 141.008 181.021 141.597 181.021C142.272 181.021 142.886 181.187 143.439 181.518C144.004 181.838 144.433 182.273 144.728 182.826C145.048 182.249 145.477 181.807 146.017 181.5C146.57 181.181 147.178 181.021 147.841 181.021C148.516 181.021 149.136 181.187 149.7 181.518C150.266 181.838 150.714 182.279 151.046 182.845C151.377 183.409 151.543 184.042 151.543 184.741V191.169H149.811V185.294C149.811 184.483 149.597 183.845 149.167 183.379C148.75 182.911 148.202 182.679 147.527 182.679C146.84 182.679 146.281 182.918 145.852 183.397C145.422 183.863 145.207 184.495 145.207 185.294V191.169H143.476V185.294C143.476 184.483 143.267 183.845 142.85 183.379C142.432 182.911 141.88 182.679 141.192 182.679C140.517 182.679 139.957 182.918 139.516 183.397C139.087 183.863 138.871 184.495 138.871 185.294V191.169H137.158V181.242ZM158.543 191.39C157.61 191.39 156.762 191.163 156.001 190.709C155.24 190.255 154.645 189.635 154.214 188.849C153.785 188.051 153.57 187.16 153.57 186.178C153.57 185.195 153.779 184.312 154.196 183.526C154.626 182.74 155.203 182.127 155.927 181.684C156.664 181.242 157.487 181.021 158.396 181.021C159.341 181.021 160.163 181.242 160.864 181.684C161.576 182.127 162.116 182.716 162.484 183.452C162.865 184.177 163.056 184.957 163.056 185.792C163.056 186.073 163.025 186.381 162.963 186.712H155.375C155.4 187.339 155.56 187.885 155.854 188.351C156.149 188.818 156.529 189.18 156.996 189.438C157.475 189.695 157.996 189.824 158.562 189.824C159.765 189.824 160.692 189.278 161.342 188.185L162.779 188.922C162.459 189.635 161.919 190.224 161.158 190.69C160.397 191.156 159.525 191.39 158.543 191.39ZM161.195 185.238C161.17 184.465 160.888 183.826 160.348 183.323C159.82 182.808 159.169 182.55 158.396 182.55C157.634 182.55 156.978 182.796 156.424 183.286C155.872 183.765 155.535 184.416 155.412 185.238H161.195ZM165.289 181.242H166.964V182.458C167.259 181.991 167.652 181.635 168.143 181.389C168.634 181.144 169.186 181.021 169.801 181.021C170.501 181.021 171.133 181.187 171.698 181.518C172.262 181.838 172.705 182.279 173.024 182.845C173.356 183.409 173.522 184.042 173.522 184.741V191.169H171.79V185.294C171.79 184.483 171.569 183.845 171.127 183.379C170.697 182.911 170.126 182.679 169.414 182.679C168.702 182.679 168.119 182.918 167.664 183.397C167.222 183.863 167.001 184.495 167.001 185.294V191.169H165.289V181.242ZM180.006 191.279C179.035 191.279 178.286 191.01 177.759 190.469C177.243 189.917 176.985 189.131 176.985 188.112V182.882H175.18V181.242H175.549C175.99 181.242 176.341 181.113 176.599 180.855C176.856 180.586 176.985 180.223 176.985 179.769V178.959H178.698V181.242H180.927V182.882H178.698V188.057C178.698 189.162 179.25 189.714 180.356 189.714C180.589 189.714 180.816 189.695 181.037 189.658V191.187C180.779 191.249 180.435 191.279 180.006 191.279Z" fill="white"/>
<path d="M49.0829 186.617C50.777 186.617 52.1503 185.243 52.1503 183.548C52.1503 181.852 50.777 180.478 49.0829 180.478C47.3888 180.478 46.0154 181.852 46.0154 183.548C46.0154 185.243 47.3888 186.617 49.0829 186.617Z" fill="#FA7A68"/>
<path d="M69.1984 242.04C67.9214 242.04 66.7672 241.739 65.7358 241.137C64.7167 240.523 63.9186 239.682 63.3415 238.614C62.7644 237.534 62.4759 236.317 62.4759 234.967C62.4759 233.617 62.7644 232.4 63.3415 231.32C63.9186 230.24 64.7167 229.398 65.7358 228.797C66.7672 228.183 67.9214 227.877 69.1984 227.877C70.1069 227.877 70.9418 228.042 71.7031 228.374C72.4644 228.692 73.1089 229.117 73.6369 229.644C74.1649 230.172 74.5455 230.744 74.7788 231.357L73.1212 232.112C72.7898 231.327 72.2801 230.707 71.5926 230.252C70.9173 229.786 70.1192 229.552 69.1984 229.552C68.2406 229.552 67.3873 229.779 66.6383 230.233C65.9016 230.688 65.3244 231.327 64.907 232.149C64.4895 232.972 64.2808 233.911 64.2808 234.967C64.2808 236.023 64.4895 236.962 64.907 237.785C65.3244 238.595 65.9016 239.227 66.6383 239.682C67.3873 240.136 68.2406 240.364 69.1984 240.364C70.1192 240.364 70.9173 240.136 71.5926 239.682C72.2801 239.215 72.7898 238.589 73.1212 237.803L74.7788 238.558C74.5455 239.184 74.1649 239.762 73.6369 240.29C73.1089 240.817 72.4644 241.242 71.7031 241.56C70.9418 241.88 70.1069 242.04 69.1984 242.04ZM81.5664 242.04C80.6209 242.04 79.7553 241.819 78.9694 241.377C78.1959 240.922 77.582 240.302 77.1277 239.516C76.6734 238.718 76.4462 237.828 76.4462 236.846C76.4462 235.876 76.6672 234.998 77.1093 234.212C77.5636 233.414 78.1775 232.794 78.9511 232.352C79.7368 231.897 80.6086 231.67 81.5664 231.67C82.5118 231.67 83.3713 231.897 84.1448 232.352C84.9306 232.794 85.5446 233.408 85.9866 234.193C86.4409 234.979 86.6681 235.864 86.6681 236.846C86.6681 237.84 86.4409 238.73 85.9866 239.516C85.5323 240.302 84.9122 240.922 84.1264 241.377C83.3529 241.819 82.4995 242.04 81.5664 242.04ZM78.2512 236.846C78.2512 237.509 78.3924 238.11 78.6747 238.65C78.9694 239.19 79.3685 239.615 79.8719 239.921C80.3876 240.228 80.9524 240.382 81.5664 240.382C82.168 240.382 82.7205 240.228 83.224 239.921C83.7274 239.615 84.1203 239.19 84.4027 238.65C84.6973 238.11 84.8447 237.509 84.8447 236.846C84.8447 236.182 84.6973 235.587 84.4027 235.059C84.1203 234.519 83.7274 234.095 83.224 233.789C82.7205 233.481 82.168 233.328 81.5664 233.328C80.9524 233.328 80.3876 233.481 79.8719 233.789C79.3685 234.095 78.9694 234.519 78.6747 235.059C78.3924 235.587 78.2512 236.182 78.2512 236.846ZM88.902 231.891H90.5781V233.272C90.9709 232.769 91.4621 232.377 92.0515 232.094C92.6531 231.811 93.3223 231.67 94.059 231.67C94.9799 231.67 95.8148 231.897 96.5638 232.352C97.3128 232.806 97.9021 233.432 98.3318 234.23C98.7616 235.016 98.9765 235.894 98.9765 236.865C98.9765 237.834 98.7616 238.712 98.3318 239.498C97.9021 240.284 97.3128 240.904 96.5638 241.358C95.8148 241.812 94.9737 242.04 94.0405 242.04C93.3284 242.04 92.6715 241.905 92.0699 241.634C91.4804 241.352 90.9955 240.953 90.6149 240.437V245.502H88.902V231.891ZM90.6149 236.865C90.6149 237.527 90.7561 238.129 91.0384 238.669C91.3331 239.197 91.7322 239.615 92.2356 239.921C92.7391 240.228 93.2977 240.382 93.9116 240.382C94.5256 240.382 95.078 240.228 95.5692 239.921C96.0726 239.615 96.4594 239.197 96.7295 238.669C97.012 238.129 97.1531 237.527 97.1531 236.865C97.1531 236.201 97.012 235.599 96.7295 235.059C96.4471 234.519 96.0603 234.095 95.5692 233.789C95.078 233.481 94.5256 233.328 93.9116 233.328C93.2977 233.328 92.7391 233.481 92.2356 233.789C91.7322 234.095 91.3331 234.519 91.0384 235.059C90.7561 235.599 90.6149 236.201 90.6149 236.865ZM103.861 241.8L99.9188 231.891H101.779L104.799 239.645L107.802 231.891H109.699L104.21 245.502H102.314L103.861 241.8ZM110.099 231.891H111.996L114.373 239.166L116.692 231.891H118.313L120.634 239.166L123.028 231.891H124.906L121.5 241.819H119.86L117.503 234.341L115.145 241.819H113.507L110.099 231.891ZM126.438 231.891H128.115V233.07C128.631 232.211 129.508 231.781 130.749 231.781H131.356V233.401H130.491C129.779 233.401 129.208 233.623 128.777 234.064C128.36 234.507 128.151 235.121 128.151 235.907V241.819H126.438V231.891ZM132.878 231.891H134.591V241.819H132.878V231.891ZM132.675 229.239C132.675 228.92 132.773 228.662 132.97 228.466C133.166 228.269 133.424 228.171 133.744 228.171C134.062 228.171 134.321 228.269 134.517 228.466C134.713 228.662 134.811 228.92 134.811 229.239C134.811 229.558 134.713 229.816 134.517 230.013C134.321 230.209 134.062 230.307 133.744 230.307C133.424 230.307 133.166 230.209 132.97 230.013C132.773 229.816 132.675 229.558 132.675 229.239ZM141.282 241.929C140.312 241.929 139.563 241.659 139.035 241.119C138.519 240.566 138.262 239.781 138.262 238.761V233.531H136.456V231.891H136.825C137.267 231.891 137.617 231.762 137.874 231.505C138.133 231.234 138.262 230.873 138.262 230.418V229.607H139.974V231.891H142.202V233.531H139.974V238.706C139.974 239.811 140.527 240.364 141.632 240.364C141.865 240.364 142.093 240.345 142.313 240.308V241.837C142.056 241.898 141.711 241.929 141.282 241.929ZM148.584 241.929C147.614 241.929 146.865 241.659 146.337 241.119C145.822 240.566 145.564 239.781 145.564 238.761V233.531H143.758V231.891H144.127C144.569 231.891 144.919 231.762 145.176 231.505C145.435 231.234 145.564 230.873 145.564 230.418V229.607H147.277V231.891H149.505V233.531H147.277V238.706C147.277 239.811 147.829 240.364 148.934 240.364C149.167 240.364 149.395 240.345 149.616 240.308V241.837C149.358 241.898 149.014 241.929 148.584 241.929ZM151.853 231.891H153.566V241.819H151.853V231.891ZM151.651 229.239C151.651 228.92 151.749 228.662 151.945 228.466C152.141 228.269 152.4 228.171 152.718 228.171C153.038 228.171 153.296 228.269 153.492 228.466C153.688 228.662 153.787 228.92 153.787 229.239C153.787 229.558 153.688 229.816 153.492 230.013C153.296 230.209 153.038 230.307 152.718 230.307C152.4 230.307 152.141 230.209 151.945 230.013C151.749 229.816 151.651 229.558 151.651 229.239ZM156.224 231.891H157.899V233.107C158.194 232.64 158.588 232.285 159.078 232.039C159.569 231.793 160.122 231.67 160.736 231.67C161.436 231.67 162.068 231.836 162.633 232.168C163.197 232.486 163.64 232.929 163.959 233.494C164.291 234.058 164.456 234.69 164.456 235.391V241.819H162.725V235.943C162.725 235.133 162.504 234.495 162.062 234.027C161.632 233.561 161.061 233.328 160.349 233.328C159.637 233.328 159.054 233.567 158.6 234.046C158.157 234.513 157.936 235.145 157.936 235.943V241.819H156.224V231.891ZM171.64 245.871C170.597 245.871 169.676 245.631 168.878 245.152C168.092 244.685 167.534 244.059 167.202 243.273L168.804 242.537C168.989 243.028 169.326 243.427 169.818 243.733C170.308 244.053 170.91 244.213 171.622 244.213C172.494 244.213 173.218 243.961 173.795 243.458C174.373 242.966 174.661 242.279 174.661 241.394V240.013C174.293 240.517 173.82 240.904 173.243 241.174C172.666 241.444 172.04 241.579 171.365 241.579C170.444 241.579 169.615 241.365 168.878 240.934C168.141 240.493 167.558 239.896 167.128 239.147C166.711 238.387 166.502 237.546 166.502 236.625C166.502 235.704 166.711 234.869 167.128 234.12C167.546 233.358 168.123 232.763 168.86 232.334C169.596 231.891 170.425 231.67 171.346 231.67C172.034 231.67 172.666 231.811 173.243 232.094C173.82 232.365 174.312 232.757 174.716 233.272V231.891H176.392V241.394C176.392 242.254 176.19 243.021 175.785 243.697C175.379 244.373 174.815 244.9 174.09 245.281C173.366 245.674 172.549 245.871 171.64 245.871ZM168.307 236.625C168.307 237.226 168.442 237.779 168.712 238.283C168.995 238.786 169.381 239.184 169.873 239.479C170.364 239.774 170.91 239.921 171.511 239.921C172.089 239.921 172.617 239.774 173.095 239.479C173.587 239.184 173.967 238.786 174.238 238.283C174.52 237.779 174.661 237.226 174.661 236.625C174.661 236.023 174.52 235.47 174.238 234.967C173.967 234.464 173.587 234.064 173.095 233.77C172.617 233.475 172.089 233.328 171.511 233.328C170.91 233.328 170.364 233.475 169.873 233.77C169.393 234.064 169.013 234.464 168.731 234.967C168.448 235.47 168.307 236.023 168.307 236.625Z" fill="white"/>
<path d="M49.0829 237.267C50.777 237.267 52.1503 235.892 52.1503 234.197C52.1503 232.502 50.777 231.128 49.0829 231.128C47.3888 231.128 46.0154 232.502 46.0154 234.197C46.0154 235.892 47.3888 237.267 49.0829 237.267Z" fill="#FFD978"/>
<path d="M62.8811 278.747H64.3913L71.5926 288.876V278.747H73.4159V292.467H71.9057L64.686 282.191V292.467H62.8811V278.747ZM80.9907 292.689C80.0453 292.689 79.1797 292.467 78.3939 292.026C77.6203 291.572 77.0064 290.951 76.5521 290.165C76.0978 289.368 75.8706 288.477 75.8706 287.495C75.8706 286.525 76.0917 285.647 76.5337 284.862C76.988 284.064 77.6019 283.443 78.3755 283.001C79.1613 282.547 80.0331 282.32 80.9907 282.32C81.9362 282.32 82.7957 282.547 83.5693 283.001C84.355 283.443 84.969 284.057 85.411 284.843C85.8653 285.629 86.0924 286.512 86.0924 287.495C86.0924 288.49 85.8653 289.38 85.411 290.165C84.9567 290.951 84.3367 291.572 83.5508 292.026C82.7772 292.467 81.924 292.689 80.9907 292.689ZM77.6756 287.495C77.6756 288.158 77.8168 288.759 78.0992 289.3C78.3939 289.84 78.793 290.263 79.2964 290.571C79.812 290.878 80.3768 291.031 80.9907 291.031C81.5924 291.031 82.145 290.878 82.6483 290.571C83.1517 290.263 83.5447 289.84 83.827 289.3C84.1217 288.759 84.2692 288.158 84.2692 287.495C84.2692 286.832 84.1217 286.237 83.827 285.708C83.5447 285.168 83.1517 284.745 82.6483 284.437C82.145 284.131 81.5924 283.977 80.9907 283.977C80.3768 283.977 79.812 284.131 79.2964 284.437C78.793 284.745 78.3939 285.168 78.0992 285.708C77.8168 286.237 77.6756 286.832 77.6756 287.495ZM92.1801 292.578C91.2101 292.578 90.4611 292.308 89.9331 291.767C89.4174 291.215 89.1595 290.429 89.1595 289.41V284.179H87.3546V282.541H87.7229C88.1651 282.541 88.515 282.412 88.7728 282.154C89.0306 281.884 89.1595 281.521 89.1595 281.068V280.257H90.8724V282.541H93.101V284.179H90.8724V289.356C90.8724 290.46 91.4249 291.012 92.53 291.012C92.7633 291.012 92.9904 290.994 93.2114 290.957V292.486C92.9536 292.547 92.6098 292.578 92.1801 292.578ZM103.55 292.689C102.617 292.689 101.782 292.516 101.045 292.173C100.308 291.817 99.7007 291.35 99.2218 290.774C98.743 290.183 98.4114 289.551 98.2272 288.876L99.8848 288.361C100.142 289.183 100.622 289.834 101.321 290.313C102.034 290.792 102.776 291.031 103.55 291.031C104.065 291.031 104.526 290.926 104.931 290.718C105.349 290.509 105.674 290.245 105.908 289.926C106.14 289.607 106.257 289.288 106.257 288.968C106.257 288.465 106.08 288.01 105.723 287.606C105.38 287.2 104.9 286.93 104.287 286.795L101.966 286.28C100.983 286.071 100.204 285.605 99.627 284.88C99.0621 284.143 98.7798 283.302 98.7798 282.357C98.7798 281.632 98.964 280.982 99.3323 280.405C99.713 279.815 100.228 279.354 100.88 279.022C101.53 278.692 102.249 278.526 103.035 278.526C103.906 278.526 104.679 278.679 105.355 278.986C106.043 279.293 106.601 279.704 107.031 280.22C107.473 280.723 107.786 281.269 107.97 281.86L106.331 282.449C106.061 281.724 105.613 281.165 104.986 280.772C104.373 280.38 103.728 280.183 103.053 280.183C102.586 280.183 102.169 280.288 101.8 280.496C101.432 280.693 101.143 280.951 100.934 281.269C100.726 281.589 100.622 281.914 100.622 282.246C100.622 282.761 100.806 283.235 101.174 283.664C101.555 284.082 102.027 284.351 102.592 284.474L104.691 284.953C105.797 285.199 106.644 285.665 107.233 286.353C107.823 287.041 108.118 287.864 108.118 288.821C108.118 289.545 107.927 290.202 107.547 290.792C107.166 291.381 106.626 291.847 105.926 292.192C105.239 292.523 104.447 292.689 103.55 292.689ZM110.54 282.541H112.215V283.922C112.608 283.418 113.099 283.026 113.688 282.743C114.291 282.461 114.96 282.32 115.696 282.32C116.617 282.32 117.451 282.547 118.2 283.001C118.949 283.455 119.54 284.082 119.969 284.88C120.398 285.665 120.613 286.543 120.613 287.513C120.613 288.484 120.398 289.362 119.969 290.147C119.54 290.932 118.949 291.553 118.2 292.007C117.451 292.461 116.611 292.689 115.678 292.689C114.966 292.689 114.309 292.553 113.707 292.284C113.117 292.001 112.633 291.603 112.252 291.086V296.151H110.54V282.541ZM112.252 287.513C112.252 288.176 112.393 288.778 112.676 289.319C112.97 289.846 113.369 290.263 113.873 290.571C114.377 290.878 114.935 291.031 115.549 291.031C116.163 291.031 116.715 290.878 117.207 290.571C117.71 290.263 118.097 289.846 118.366 289.319C118.649 288.778 118.791 288.176 118.791 287.513C118.791 286.85 118.649 286.249 118.366 285.708C118.085 285.168 117.697 284.745 117.207 284.437C116.715 284.131 116.163 283.977 115.549 283.977C114.935 283.977 114.377 284.131 113.873 284.437C113.369 284.745 112.97 285.168 112.676 285.708C112.393 286.249 112.252 286.85 112.252 287.513ZM127.427 292.689C126.494 292.689 125.646 292.461 124.885 292.007C124.125 291.553 123.528 290.932 123.099 290.147C122.669 289.349 122.455 288.459 122.455 287.476C122.455 286.494 122.663 285.611 123.081 284.825C123.51 284.039 124.088 283.424 124.812 282.983C125.549 282.541 126.372 282.32 127.279 282.32C128.225 282.32 129.048 282.541 129.748 282.983C130.46 283.424 131 284.014 131.369 284.751C131.749 285.475 131.939 286.255 131.939 287.09C131.939 287.372 131.909 287.679 131.847 288.01H124.259C124.284 288.637 124.443 289.183 124.738 289.65C125.033 290.117 125.414 290.479 125.88 290.737C126.359 290.994 126.881 291.123 127.445 291.123C128.648 291.123 129.576 290.577 130.226 289.484L131.663 290.22C131.344 290.932 130.804 291.523 130.043 291.989C129.282 292.455 128.41 292.689 127.427 292.689ZM130.08 286.537C130.055 285.763 129.772 285.125 129.232 284.622C128.704 284.107 128.053 283.848 127.279 283.848C126.518 283.848 125.861 284.094 125.309 284.585C124.757 285.064 124.419 285.714 124.296 286.537H130.08ZM138.777 292.689C137.807 292.689 136.935 292.461 136.161 292.007C135.388 291.553 134.786 290.932 134.357 290.147C133.927 289.349 133.713 288.465 133.713 287.495C133.713 286.512 133.927 285.629 134.357 284.843C134.786 284.057 135.382 283.443 136.143 283.001C136.916 282.547 137.795 282.32 138.777 282.32C139.735 282.32 140.607 282.572 141.392 283.075C142.19 283.566 142.756 284.204 143.087 284.99L141.539 285.726C141.307 285.199 140.938 284.776 140.435 284.456C139.943 284.137 139.391 283.977 138.777 283.977C138.176 283.977 137.623 284.131 137.119 284.437C136.629 284.745 136.241 285.168 135.959 285.708C135.677 286.237 135.535 286.838 135.535 287.513C135.535 288.176 135.677 288.778 135.959 289.319C136.254 289.846 136.647 290.263 137.138 290.571C137.63 290.878 138.176 291.031 138.777 291.031C139.403 291.031 139.962 290.872 140.453 290.552C140.944 290.233 141.307 289.797 141.539 289.245L143.087 290.018C142.768 290.792 142.209 291.43 141.41 291.933C140.613 292.437 139.735 292.689 138.777 292.689ZM145.27 282.541H146.983V292.467H145.27V282.541ZM145.068 279.888C145.068 279.57 145.165 279.311 145.362 279.115C145.559 278.918 145.817 278.821 146.136 278.821C146.455 278.821 146.712 278.918 146.909 279.115C147.106 279.311 147.204 279.57 147.204 279.888C147.204 280.208 147.106 280.465 146.909 280.662C146.712 280.859 146.455 280.957 146.136 280.957C145.817 280.957 145.559 280.859 145.362 280.662C145.165 280.465 145.068 280.208 145.068 279.888ZM150.69 284.179H148.794V282.541H150.69V281.841C150.69 281.153 150.844 280.557 151.15 280.054C151.458 279.551 151.87 279.17 152.385 278.912C152.913 278.655 153.502 278.526 154.153 278.526C154.484 278.526 154.773 278.556 155.018 278.618V280.146C154.835 280.11 154.614 280.091 154.355 280.091C153.066 280.091 152.422 280.674 152.422 281.841V282.541H158.223V292.467H156.51V284.179H152.422V292.467H150.69V284.179ZM165.18 292.689C164.247 292.689 163.399 292.461 162.638 292.007C161.877 291.553 161.281 290.932 160.852 290.147C160.422 289.349 160.207 288.459 160.207 287.476C160.207 286.494 160.416 285.611 160.834 284.825C161.263 284.039 161.84 283.424 162.564 282.983C163.301 282.541 164.124 282.32 165.032 282.32C165.978 282.32 166.801 282.541 167.501 282.983C168.213 283.424 168.753 284.014 169.122 284.751C169.502 285.475 169.692 286.255 169.692 287.09C169.692 287.372 169.662 287.679 169.6 288.01H162.012C162.036 288.637 162.196 289.183 162.49 289.65C162.785 290.117 163.166 290.479 163.633 290.737C164.111 290.994 164.633 291.123 165.198 291.123C166.401 291.123 167.329 290.577 167.979 289.484L169.416 290.22C169.097 290.932 168.556 291.523 167.795 291.989C167.033 292.455 166.162 292.689 165.18 292.689ZM167.832 286.537C167.807 285.763 167.525 285.125 166.984 284.622C166.457 284.107 165.806 283.848 165.032 283.848C164.271 283.848 163.614 284.094 163.062 284.585C162.509 285.064 162.172 285.714 162.049 286.537H167.832ZM176.438 292.689C175.517 292.689 174.682 292.461 173.933 292.007C173.184 291.553 172.595 290.932 172.164 290.147C171.735 289.362 171.52 288.484 171.52 287.513C171.52 286.543 171.735 285.665 172.164 284.88C172.595 284.082 173.184 283.455 173.933 283.001C174.682 282.547 175.517 282.32 176.438 282.32C177.162 282.32 177.813 282.455 178.39 282.724C178.979 282.995 179.471 283.376 179.863 283.867V278.526H181.595V292.467H179.918V291.012C179.551 291.541 179.059 291.952 178.445 292.247C177.844 292.541 177.175 292.689 176.438 292.689ZM173.325 287.513C173.325 288.176 173.467 288.778 173.748 289.319C174.031 289.846 174.417 290.263 174.909 290.571C175.412 290.878 175.971 291.031 176.585 291.031C177.199 291.031 177.751 290.878 178.242 290.571C178.746 290.263 179.139 289.846 179.421 289.319C179.716 288.778 179.863 288.176 179.863 287.513C179.863 286.85 179.716 286.249 179.421 285.708C179.139 285.168 178.746 284.745 178.242 284.437C177.751 284.131 177.199 283.977 176.585 283.977C175.971 283.977 175.412 284.131 174.909 284.437C174.417 284.745 174.031 285.168 173.748 285.708C173.467 286.249 173.325 286.85 173.325 287.513Z" fill="white"/>
<path d="M49.0829 290.986C50.777 290.986 52.1503 289.612 52.1503 287.916C52.1503 286.221 50.777 284.847 49.0829 284.847C47.3888 284.847 46.0154 286.221 46.0154 287.916C46.0154 289.612 47.3888 290.986 49.0829 290.986Z" fill="#757575"/>
<path d="M697.231 98.1565H623.63C616.849 98.1565 611.352 103.654 611.352 110.435V308.424C611.352 315.206 616.849 320.703 623.63 320.703H697.231C704.012 320.703 709.509 315.206 709.509 308.424V110.435C709.509 103.654 704.012 98.1565 697.231 98.1565Z" fill="#85B3F7"/>
<path d="M697.23 146.237H623.629C616.848 146.237 611.351 151.735 611.351 158.516V308.424C611.351 315.206 616.848 320.703 623.629 320.703H697.23C704.011 320.703 709.508 315.206 709.508 308.424V158.516C709.508 151.735 704.011 146.237 697.23 146.237Z" fill="#FFD978"/>
<path d="M697.23 187.449H623.629C616.848 187.449 611.351 192.947 611.351 199.728V308.424C611.351 315.206 616.848 320.703 623.629 320.703H697.23C704.011 320.703 709.508 315.206 709.508 308.424V199.728C709.508 192.947 704.011 187.449 697.23 187.449Z" fill="#FA7A68"/>
<path d="M697.23 216.337H623.629C616.848 216.337 611.351 221.834 611.351 228.615V308.463C611.351 315.244 616.848 320.742 623.629 320.742H697.23C704.011 320.742 709.508 315.244 709.508 308.463V228.615C709.508 221.834 704.011 216.337 697.23 216.337Z" fill="#CFB8FF"/>
<path opacity="0.5" d="M452.773 263.478H450.609V262.174H454.293V273.609H452.773V263.478ZM460.372 273.792C459.645 273.792 458.99 273.634 458.407 273.317C457.835 272.989 457.384 272.539 457.057 271.966C456.739 271.392 456.581 270.743 456.581 270.016C456.581 269.413 456.688 268.82 456.903 268.237C457.117 267.653 457.466 267.044 457.946 266.41L461.17 262.174H462.981L459.543 266.656C459.819 266.533 460.167 266.471 460.587 266.471C461.252 266.471 461.855 266.63 462.397 266.947C462.94 267.254 463.364 267.683 463.672 268.237C463.988 268.789 464.147 269.408 464.147 270.093C464.147 270.789 463.983 271.418 463.656 271.981C463.329 272.544 462.879 272.989 462.306 273.317C461.732 273.634 461.088 273.792 460.372 273.792ZM458.1 270.109C458.1 270.784 458.315 271.342 458.745 271.782C459.175 272.221 459.717 272.442 460.372 272.442C460.802 272.442 461.185 272.344 461.523 272.15C461.871 271.946 462.142 271.664 462.337 271.306C462.53 270.948 462.628 270.549 462.628 270.109C462.628 269.433 462.413 268.876 461.983 268.435C461.564 267.996 461.026 267.776 460.372 267.776C459.717 267.776 459.175 267.996 458.745 268.435C458.315 268.876 458.1 269.433 458.1 270.109ZM469.544 273.792C468.644 273.792 467.84 273.557 467.134 273.086C466.428 272.616 465.943 271.981 465.676 271.183L466.904 270.661C467.119 271.214 467.467 271.648 467.948 271.966C468.429 272.283 468.961 272.442 469.544 272.442C470.004 272.442 470.414 272.339 470.772 272.135C471.141 271.92 471.426 271.628 471.631 271.26C471.847 270.881 471.954 270.462 471.954 270.001C471.954 269.531 471.847 269.112 471.631 268.743C471.426 268.365 471.141 268.073 470.772 267.868C470.414 267.653 470.009 267.546 469.56 267.546C469.1 267.546 468.674 267.653 468.286 267.868C467.897 268.083 467.611 268.354 467.426 268.681L466.213 268.42L467.088 262.159H473.013V263.463H468.163L467.687 266.809C468.23 266.42 468.905 266.225 469.713 266.225C470.44 266.225 471.089 266.394 471.662 266.732C472.235 267.059 472.681 267.51 472.997 268.083C473.315 268.656 473.474 269.295 473.474 270.001C473.474 270.717 473.299 271.363 472.951 271.935C472.614 272.508 472.143 272.963 471.539 273.301C470.946 273.629 470.281 273.792 469.544 273.792ZM475.503 261.99H476.93V266.302C477.176 265.934 477.497 265.653 477.897 265.458C478.306 265.254 478.762 265.151 479.263 265.151C479.846 265.151 480.372 265.29 480.844 265.565C481.314 265.832 481.683 266.2 481.948 266.671C482.225 267.141 482.363 267.668 482.363 268.252V273.609H480.921V268.712C480.921 268.037 480.736 267.505 480.367 267.116C479.999 266.727 479.524 266.533 478.94 266.533C478.357 266.533 477.876 266.732 477.497 267.131C477.119 267.52 476.93 268.047 476.93 268.712V273.609H475.503V261.99ZM492.231 270.968H486.613V269.725L492.2 262.174H493.643V269.725H495.132V270.968H493.643V273.609H492.231V270.968ZM492.231 269.725V264.154L488.148 269.725H492.231ZM501.313 273.792C500.412 273.792 499.619 273.547 498.933 273.055C498.248 272.564 497.715 271.874 497.337 270.984C496.958 270.083 496.769 269.05 496.769 267.883C496.769 266.717 496.958 265.688 497.337 264.798C497.715 263.908 498.243 263.217 498.918 262.726C499.604 262.235 500.397 261.99 501.297 261.99C502.197 261.99 502.99 262.235 503.675 262.726C504.361 263.217 504.894 263.908 505.272 264.798C505.651 265.688 505.84 266.717 505.84 267.883C505.84 269.05 505.651 270.083 505.272 270.984C504.894 271.874 504.361 272.564 503.675 273.055C503 273.547 502.212 273.792 501.313 273.792ZM498.274 267.883C498.274 268.784 498.396 269.577 498.641 270.262C498.898 270.937 499.255 271.464 499.716 271.843C500.176 272.211 500.708 272.395 501.313 272.395C501.916 272.395 502.443 272.211 502.893 271.843C503.354 271.464 503.706 270.937 503.952 270.262C504.208 269.577 504.336 268.784 504.336 267.883C504.336 266.982 504.208 266.195 503.952 265.519C503.706 264.844 503.354 264.323 502.893 263.954C502.432 263.576 501.901 263.386 501.297 263.386C500.693 263.386 500.161 263.576 499.701 263.954C499.25 264.323 498.898 264.844 498.641 265.519C498.396 266.195 498.274 266.982 498.274 267.883ZM507.952 265.336H509.349V266.364C509.585 265.975 509.901 265.678 510.301 265.473C510.71 265.259 511.159 265.151 511.651 265.151C512.214 265.151 512.725 265.29 513.186 265.565C513.656 265.832 514.015 266.195 514.26 266.656C514.526 266.174 514.884 265.806 515.335 265.55C515.795 265.285 516.302 265.151 516.854 265.151C517.417 265.151 517.933 265.29 518.404 265.565C518.875 265.832 519.249 266.2 519.524 266.671C519.801 267.141 519.939 267.668 519.939 268.252V273.609H518.497V268.712C518.497 268.037 518.317 267.505 517.959 267.116C517.611 266.727 517.155 266.533 516.593 266.533C516.02 266.533 515.555 266.732 515.196 267.131C514.839 267.52 514.66 268.047 514.66 268.712V273.609H513.217V268.712C513.217 268.037 513.043 267.505 512.694 267.116C512.347 266.727 511.886 266.533 511.313 266.533C510.751 266.533 510.285 266.732 509.917 267.131C509.559 267.52 509.38 268.047 509.38 268.712V273.609H507.952V265.336Z" fill="white"/>
<path opacity="0.5" d="M465.081 212.339C464.805 212.462 464.457 212.523 464.037 212.523C463.372 212.523 462.769 212.369 462.227 212.063C461.684 211.745 461.254 211.311 460.937 210.758C460.63 210.205 460.477 209.581 460.477 208.886C460.477 208.19 460.641 207.561 460.967 206.997C461.295 206.435 461.745 205.995 462.319 205.678C462.892 205.361 463.536 205.202 464.252 205.202C464.979 205.202 465.628 205.366 466.201 205.693C466.785 206.011 467.235 206.455 467.553 207.028C467.879 207.602 468.043 208.252 468.043 208.978C468.043 209.581 467.936 210.175 467.721 210.758C467.506 211.342 467.158 211.95 466.678 212.585L463.454 216.82H461.643L465.081 212.339ZM461.996 208.886C461.996 209.561 462.206 210.118 462.625 210.559C463.056 210.988 463.598 211.203 464.252 211.203C464.907 211.203 465.449 210.988 465.879 210.559C466.309 210.118 466.524 209.561 466.524 208.886C466.524 208.445 466.427 208.047 466.232 207.688C466.038 207.33 465.767 207.049 465.418 206.845C465.071 206.64 464.682 206.537 464.252 206.537C463.833 206.537 463.449 206.64 463.101 206.845C462.753 207.049 462.482 207.33 462.288 207.688C462.094 208.047 461.996 208.445 461.996 208.886ZM474.437 217.005C473.538 217.005 472.745 216.759 472.059 216.268C471.373 215.777 470.841 215.087 470.463 214.196C470.084 213.296 469.894 212.262 469.894 211.096C469.894 209.929 470.084 208.901 470.463 208.011C470.841 207.12 471.368 206.43 472.044 205.939C472.729 205.447 473.522 205.202 474.422 205.202C475.323 205.202 476.116 205.447 476.801 205.939C477.487 206.43 478.019 207.12 478.397 208.011C478.777 208.901 478.965 209.929 478.965 211.096C478.965 212.262 478.777 213.296 478.397 214.196C478.019 215.087 477.487 215.777 476.801 216.268C476.126 216.759 475.338 217.005 474.437 217.005ZM471.398 211.096C471.398 211.996 471.521 212.789 471.767 213.475C472.023 214.15 472.381 214.677 472.841 215.056C473.302 215.424 473.834 215.608 474.437 215.608C475.042 215.608 475.569 215.424 476.018 215.056C476.479 214.677 476.832 214.15 477.078 213.475C477.333 212.789 477.461 211.996 477.461 211.096C477.461 210.195 477.333 209.407 477.078 208.732C476.832 208.057 476.479 207.535 476.018 207.166C475.558 206.788 475.027 206.599 474.422 206.599C473.819 206.599 473.287 206.788 472.827 207.166C472.376 207.535 472.023 208.057 471.767 208.732C471.521 209.407 471.398 210.195 471.398 211.096ZM481.078 205.202H482.506V209.515C482.75 209.147 483.073 208.865 483.472 208.671C483.882 208.466 484.337 208.364 484.838 208.364C485.422 208.364 485.948 208.502 486.419 208.778C486.89 209.045 487.258 209.412 487.524 209.884C487.801 210.354 487.938 210.881 487.938 211.464V216.82H486.495V211.925C486.495 211.249 486.312 210.717 485.943 210.328C485.575 209.939 485.099 209.745 484.516 209.745C483.933 209.745 483.451 209.944 483.073 210.344C482.694 210.732 482.506 211.26 482.506 211.925V216.82H481.078V205.202ZM494.261 206.691H492.097V205.387H495.78V216.82H494.261V206.691ZM501.994 217.005C501.093 217.005 500.29 216.769 499.584 216.299C498.878 215.828 498.391 215.193 498.126 214.396L499.354 213.873C499.569 214.426 499.916 214.861 500.398 215.178C500.878 215.495 501.41 215.654 501.994 215.654C502.454 215.654 502.863 215.552 503.221 215.347C503.589 215.133 503.876 214.841 504.081 214.472C504.296 214.094 504.403 213.674 504.403 213.214C504.403 212.743 504.296 212.323 504.081 211.955C503.876 211.576 503.589 211.285 503.221 211.08C502.863 210.865 502.459 210.758 502.009 210.758C501.548 210.758 501.124 210.865 500.735 211.08C500.346 211.296 500.06 211.566 499.875 211.894L498.663 211.633L499.538 205.371H505.462V206.676H500.612L500.136 210.021C500.678 209.633 501.354 209.438 502.162 209.438C502.888 209.438 503.539 209.607 504.112 209.944C504.685 210.272 505.129 210.722 505.447 211.296C505.764 211.868 505.922 212.508 505.922 213.214C505.922 213.93 505.749 214.574 505.401 215.148C505.064 215.721 504.592 216.176 503.989 216.514C503.396 216.841 502.731 217.005 501.994 217.005ZM507.952 208.548H509.349V209.576C509.583 209.187 509.901 208.891 510.301 208.686C510.709 208.471 511.159 208.364 511.651 208.364C512.213 208.364 512.725 208.502 513.186 208.778C513.656 209.045 514.015 209.407 514.26 209.868C514.526 209.387 514.884 209.019 515.334 208.763C515.794 208.496 516.302 208.364 516.854 208.364C517.416 208.364 517.933 208.502 518.404 208.778C518.874 209.045 519.248 209.412 519.524 209.884C519.801 210.354 519.939 210.881 519.939 211.464V216.82H518.496V211.925C518.496 211.249 518.317 210.717 517.958 210.328C517.611 209.939 517.155 209.745 516.593 209.745C516.02 209.745 515.555 209.944 515.196 210.344C514.839 210.732 514.659 211.26 514.659 211.925V216.82H513.217V211.925C513.217 211.249 513.042 210.717 512.694 210.328C512.347 209.939 511.886 209.745 511.313 209.745C510.75 209.745 510.285 209.944 509.916 210.344C509.559 210.732 509.379 211.26 509.379 211.925V216.82H507.952V208.548Z" fill="white"/>
<path opacity="0.5" d="M456.37 168.32H454.206V167.016H457.889V178.449H456.37V168.32ZM462.231 168.32H460.067V167.016H463.75V178.449H462.231V168.32ZM469.963 178.634C469.064 178.634 468.26 178.399 467.554 177.928C466.847 177.458 466.362 176.823 466.096 176.025L467.324 175.503C467.539 176.056 467.886 176.49 468.367 176.808C468.848 177.125 469.38 177.283 469.963 177.283C470.424 177.283 470.833 177.181 471.192 176.976C471.56 176.762 471.846 176.47 472.051 176.102C472.265 175.723 472.373 175.304 472.373 174.843C472.373 174.372 472.265 173.952 472.051 173.585C471.846 173.205 471.56 172.914 471.192 172.71C470.833 172.494 470.429 172.388 469.979 172.388C469.518 172.388 469.093 172.494 468.705 172.71C468.317 172.925 468.03 173.195 467.845 173.523L466.633 173.262L467.508 167H473.432V168.305H468.582L468.107 171.65C468.649 171.262 469.324 171.067 470.132 171.067C470.859 171.067 471.508 171.236 472.082 171.574C472.655 171.901 473.099 172.352 473.417 172.925C473.734 173.497 473.893 174.137 473.893 174.843C473.893 175.559 473.718 176.203 473.371 176.777C473.033 177.35 472.563 177.805 471.959 178.143C471.365 178.47 470.7 178.634 469.963 178.634ZM475.921 166.831H477.349V171.144C477.595 170.776 477.917 170.494 478.316 170.3C478.726 170.096 479.181 169.993 479.682 169.993C480.266 169.993 480.792 170.132 481.263 170.407C481.734 170.674 482.102 171.042 482.368 171.513C482.644 171.983 482.782 172.51 482.782 173.094V178.449H481.339V173.554C481.339 172.879 481.155 172.347 480.787 171.957C480.418 171.569 479.943 171.374 479.36 171.374C478.777 171.374 478.295 171.574 477.917 171.973C477.538 172.362 477.349 172.889 477.349 173.554V178.449H475.921V166.831ZM490.885 178.634C489.975 178.634 489.166 178.399 488.46 177.928C487.754 177.458 487.268 176.813 487.002 175.994L488.276 175.472C488.491 176.035 488.828 176.48 489.289 176.808C489.749 177.125 490.281 177.283 490.885 177.283C491.611 177.283 492.2 177.078 492.65 176.67C493.1 176.25 493.325 175.677 493.325 174.95C493.325 174.224 493.095 173.656 492.635 173.246C492.185 172.827 491.596 172.617 490.869 172.617C490.563 172.617 490.245 172.658 489.918 172.74L489.596 172.05L492.65 168.32H487.585V167.016H494.354V168.274L491.744 171.497C492.665 171.61 493.407 171.978 493.97 172.602C494.543 173.216 494.829 173.988 494.829 174.92C494.829 175.605 494.66 176.234 494.323 176.808C493.985 177.37 493.515 177.815 492.911 178.143C492.318 178.47 491.642 178.634 490.885 178.634ZM501.312 178.634C500.412 178.634 499.619 178.389 498.933 177.897C498.248 177.406 497.715 176.716 497.337 175.825C496.958 174.925 496.769 173.892 496.769 172.725C496.769 171.559 496.958 170.53 497.337 169.64C497.715 168.749 498.243 168.059 498.918 167.568C499.603 167.077 500.396 166.831 501.297 166.831C502.196 166.831 502.99 167.077 503.675 167.568C504.36 168.059 504.893 168.749 505.271 169.64C505.65 170.53 505.84 171.559 505.84 172.725C505.84 173.892 505.65 174.925 505.271 175.825C504.893 176.716 504.36 177.406 503.675 177.897C503 178.389 502.212 178.634 501.312 178.634ZM498.273 172.725C498.273 173.626 498.395 174.419 498.641 175.104C498.897 175.779 499.255 176.306 499.716 176.685C500.176 177.053 500.708 177.237 501.312 177.237C501.916 177.237 502.442 177.053 502.892 176.685C503.353 176.306 503.706 175.779 503.952 175.104C504.208 174.419 504.335 173.626 504.335 172.725C504.335 171.824 504.208 171.036 503.952 170.361C503.706 169.686 503.353 169.164 502.892 168.796C502.432 168.417 501.9 168.228 501.297 168.228C500.692 168.228 500.161 168.417 499.701 168.796C499.25 169.164 498.897 169.686 498.641 170.361C498.395 171.036 498.273 171.824 498.273 172.725ZM507.952 170.177H509.349V171.205C509.583 170.817 509.901 170.52 510.301 170.315C510.709 170.101 511.159 169.993 511.651 169.993C512.213 169.993 512.725 170.132 513.186 170.407C513.656 170.674 514.015 171.036 514.26 171.497C514.526 171.016 514.884 170.648 515.334 170.392C515.794 170.127 516.302 169.993 516.854 169.993C517.416 169.993 517.933 170.132 518.404 170.407C518.874 170.674 519.248 171.042 519.524 171.513C519.801 171.983 519.939 172.51 519.939 173.094V178.449H518.496V173.554C518.496 172.879 518.317 172.347 517.958 171.957C517.611 171.569 517.155 171.374 516.593 171.374C516.02 171.374 515.555 171.574 515.196 171.973C514.838 172.362 514.659 172.889 514.659 173.554V178.449H513.217V173.554C513.217 172.879 513.042 172.347 512.694 171.957C512.347 171.569 511.886 171.374 511.313 171.374C510.75 171.374 510.285 171.574 509.916 171.973C509.559 172.362 509.379 172.889 509.379 173.554V178.449H507.952V170.177Z" fill="white"/>
<path opacity="0.5" d="M450.374 123.811H448.21V122.506H451.894V133.941H450.374V123.811ZM459.781 131.301H454.163V130.058L459.75 122.506H461.193V130.058H462.681V131.301H461.193V133.941H459.781V131.301ZM459.781 130.058V124.486L455.698 130.058H459.781ZM468.862 134.125C467.962 134.125 467.169 133.88 466.483 133.389C465.798 132.897 465.266 132.206 464.887 131.316C464.509 130.415 464.319 129.383 464.319 128.216C464.319 127.05 464.509 126.021 464.887 125.131C465.266 124.241 465.793 123.551 466.468 123.059C467.153 122.568 467.946 122.322 468.847 122.322C469.747 122.322 470.541 122.568 471.226 123.059C471.911 123.551 472.443 124.241 472.822 125.131C473.2 126.021 473.39 127.05 473.39 128.216C473.39 129.383 473.2 130.415 472.822 131.316C472.443 132.206 471.911 132.897 471.226 133.389C470.551 133.88 469.763 134.125 468.862 134.125ZM465.823 128.216C465.823 129.116 465.946 129.909 466.191 130.595C466.447 131.27 466.806 131.798 467.266 132.176C467.726 132.544 468.259 132.728 468.862 132.728C469.466 132.728 469.992 132.544 470.443 132.176C470.903 131.798 471.257 131.27 471.502 130.595C471.758 129.909 471.886 129.116 471.886 128.216C471.886 127.316 471.758 126.528 471.502 125.853C471.257 125.177 470.903 124.655 470.443 124.287C469.982 123.908 469.45 123.719 468.847 123.719C468.243 123.719 467.711 123.908 467.251 124.287C466.801 124.655 466.447 125.177 466.191 125.853C465.946 126.528 465.823 127.316 465.823 128.216ZM475.502 122.322H476.929V126.636C477.175 126.267 477.497 125.985 477.897 125.791C478.305 125.586 478.761 125.484 479.262 125.484C479.845 125.484 480.372 125.622 480.843 125.899C481.314 126.164 481.683 126.533 481.948 127.003C482.225 127.474 482.363 128.001 482.363 128.584V133.941H480.92V129.044C480.92 128.369 480.736 127.837 480.367 127.448C479.999 127.06 479.524 126.865 478.94 126.865C478.357 126.865 477.876 127.065 477.497 127.464C477.119 127.853 476.929 128.379 476.929 129.044V133.941H475.502V122.322ZM492.231 131.301H486.613V130.058L492.2 122.506H493.643V130.058H495.131V131.301H493.643V133.941H492.231V131.301ZM492.231 130.058V124.486L488.148 130.058H492.231ZM501.312 134.125C500.412 134.125 499.619 133.88 498.933 133.389C498.248 132.897 497.715 132.206 497.337 131.316C496.958 130.415 496.769 129.383 496.769 128.216C496.769 127.05 496.958 126.021 497.337 125.131C497.715 124.241 498.242 123.551 498.918 123.059C499.603 122.568 500.396 122.322 501.297 122.322C502.196 122.322 502.989 122.568 503.675 123.059C504.36 123.551 504.893 124.241 505.271 125.131C505.65 126.021 505.84 127.05 505.84 128.216C505.84 129.383 505.65 130.415 505.271 131.316C504.893 132.206 504.36 132.897 503.675 133.389C503 133.88 502.212 134.125 501.312 134.125ZM498.273 128.216C498.273 129.116 498.395 129.909 498.641 130.595C498.897 131.27 499.255 131.798 499.716 132.176C500.176 132.544 500.708 132.728 501.312 132.728C501.916 132.728 502.442 132.544 502.892 132.176C503.353 131.798 503.706 131.27 503.952 130.595C504.208 129.909 504.335 129.116 504.335 128.216C504.335 127.316 504.208 126.528 503.952 125.853C503.706 125.177 503.353 124.655 502.892 124.287C502.432 123.908 501.9 123.719 501.297 123.719C500.692 123.719 500.161 123.908 499.7 124.287C499.25 124.655 498.897 125.177 498.641 125.853C498.395 126.528 498.273 127.316 498.273 128.216ZM507.952 125.668H509.349V126.696C509.583 126.308 509.901 126.011 510.3 125.807C510.709 125.592 511.159 125.484 511.651 125.484C512.213 125.484 512.725 125.622 513.186 125.899C513.656 126.164 514.015 126.528 514.26 126.988C514.526 126.508 514.884 126.139 515.334 125.884C515.794 125.617 516.302 125.484 516.854 125.484C517.416 125.484 517.933 125.622 518.404 125.899C518.874 126.164 519.248 126.533 519.524 127.003C519.801 127.474 519.939 128.001 519.939 128.584V133.941H518.496V129.044C518.496 128.369 518.317 127.837 517.958 127.448C517.611 127.06 517.155 126.865 516.593 126.865C516.02 126.865 515.555 127.065 515.196 127.464C514.838 127.853 514.659 128.379 514.659 129.044V133.941H513.217V129.044C513.217 128.369 513.042 127.837 512.694 127.448C512.347 127.06 511.886 126.865 511.313 126.865C510.75 126.865 510.285 127.065 509.916 127.464C509.559 127.853 509.379 128.379 509.379 129.044V133.941H507.952V125.668Z" fill="white"/>
<path opacity="0.3" d="M611.35 266.984H528.529V268.519H611.35V266.984Z" fill="#E6E6E6"/>
<path opacity="0.3" d="M611.35 210.198H528.529V211.733H611.35V210.198Z" fill="#E9E9E9"/>
<path opacity="0.3" d="M611.35 171.828H528.529V173.363H611.35V171.828Z" fill="#E6E6E6"/>
<path opacity="0.3" d="M611.35 127.319H528.529V128.853H611.35V127.319Z" fill="#E6E6E6"/>
</g>
<defs>
<clipPath id="clip0_0_265">
<rect width="755.992" height="351.531" fill="white" transform="translate(0.00402832 0.203125)"/>
</clipPath>
</defs>
</svg>
