<svg width="18" height="15" viewBox="0 0 18 15" fill="none" xmlns="http://www.w3.org/2000/svg">
<path d="M17.4683 2.44764C16.8321 2.72905 16.1574 2.91387 15.4666 2.99598C16.1947 2.5605 16.7397 1.87515 16.9999 1.06764C16.3166 1.47431 15.5674 1.75931 14.7866 1.91348C14.2621 1.35229 13.5669 0.980114 12.8091 0.854804C12.0512 0.729484 11.2732 0.858054 10.596 1.22052C9.9187 1.58299 9.3802 2.15904 9.0642 2.85914C8.74812 3.55923 8.67221 4.34413 8.84826 5.09181C7.46251 5.02235 6.10687 4.66224 4.86933 4.03486C3.63179 3.40748 2.54003 2.52685 1.66492 1.45014C1.35516 1.98218 1.19238 2.587 1.19326 3.20264C1.19326 4.41097 1.80826 5.47847 2.74326 6.10347C2.18993 6.08606 1.64878 5.93663 1.16492 5.66764V5.71097C1.16509 6.51572 1.44356 7.29565 1.95313 7.91857C2.46269 8.54137 3.17199 8.96887 3.96076 9.12847C3.4471 9.26767 2.90851 9.28817 2.38576 9.18847C2.60814 9.88117 3.04159 10.487 3.62542 10.9211C4.20924 11.3552 4.9142 11.5958 5.64159 11.6093C4.91866 12.1771 4.0909 12.5968 3.20566 12.8445C2.32041 13.0921 1.39503 13.1629 0.482422 13.0527C2.0755 14.0772 3.93 14.6211 5.82409 14.6193C12.2349 14.6193 15.7408 9.30847 15.7408 4.70264C15.7408 4.55264 15.7366 4.40097 15.7299 4.25264C16.4123 3.75945 17.0013 3.14849 17.4691 2.44848L17.4683 2.44764Z" fill="white"/>
</svg>
